<svg height="21" width="155" viewBox="0 0 111 15" xmlns="http://www.w3.org/2000/svg"><title>Shape + PAWS New England</title><g fill="#FFF" fill-rule="evenodd"><path d="M6.258 7.037c-1.468 0-2.874.682-3.78 3.43-.908 2.745 1.094 2.526 2.357 1.96 1.223-.55 1.688-.634 3.16.093 1.388.685 2.573-.03 2.08-1.53-.496-1.5-2.162-3.953-3.817-3.953zM3.48.85c-.835.207-1.278 1.388-.987 2.638.29 1.25 1.206 2.094 2.043 1.887l.01-.003c.838-.208 1.28-1.39.99-2.64-.126-.537-.367-1-.667-1.336-.4-.445-.9-.668-1.377-.55L3.48.85zM8.33.805c-.843-.183-1.73.69-1.98 1.948-.144.724-.047 1.418.222 1.912.198.366.49.622.85.7.002 0 .005 0 .008.002.842.183 1.728-.69 1.98-1.95C9.66 2.16 9.18.992 8.337.81l-.01-.002zM.24 7.3c.463 1.113 1.438 1.745 2.178 1.413.424-.19.68-.655.733-1.226.04-.427-.03-.913-.23-1.39C2.457 4.984 1.482 4.35.742 4.684.002 5.017-.223 6.188.24 7.3zm9.335 1.217c.422.192.92.07 1.357-.276.33-.26.623-.648.823-1.124.466-1.11.245-2.284-.493-2.62l-.01-.005c-.738-.336-1.714.29-2.18 1.402-.465 1.11-.244 2.283.494 2.62l.01.005zM16.496 5.408c-.176 2.032-.272 4.064 0 6.192.08.096.176.272.352.368.704.176 1.328-.272 1.504-.8.176-.8-.272-1.6-.176-2.48 2.208-.8 5.76-1.776 5.408-4.8-1.776-2.032-4.608-2.64-7.088-1.68-.272.112-.544.8-.176 1.152.176.096.432.096.608.176-.352.544-.384 1.248-.432 1.872zm1.76-.368c0-.432.272-.784.272-1.232 0-.272-.448-.528-.352-.528 1.328-.352 2.576.528 3.632 1.328-.352 1.408-2.208 2.64-3.456 2.208-.528-.176-.096-1.136-.096-1.776zm7.28-.128c-.432 1.296-.784 2.672-1.072 3.968-.224 1.008-.8 1.952-.576 2.96 1.648.784 1.136-1.68 1.872-2.24.576-.448 1.504-.56 2.096-.224.784.464.384 1.648.928 2.384.32.416 1.168.224 1.232-.208.144-1.008-.864-1.888-.368-2.96.08-.08.08-.288 0-.432-.144-.224-.496-.224-.496-.432-.512-2.016-.816-3.968-1.664-5.776-.16-.352-.928-.144-1.072.08-.576.784-.528 1.856-.88 2.88zm.88 1.44c.064-.496.144-1.008.496-1.44.432.944 1.008 1.952.72 2.96-.144.496-1.136.416-1.52.208-.416-.224.208-1.072.304-1.728zm5.392 4.704c2.096.496 2.512-2.176 3.424-3.44.432.592.672 1.088 1.008 1.76.416.832 1.168 1.664 2.096.912.32-.256.496-.656.672-.992.416-1.088.672-2.176.672-3.264 0-1.088.416-2.352-.512-3.104-.32-.256-1.008.096-1.168.416-.416 1.68.672 3.52-.496 4.944-.096.08-.336-.336-.336-.496-.416-1.264-1.52-3.184-2.688-1.76-.752.912-.832 2.256-1.664 3.184-.512-.592-.496-1.344-.672-2.096-.256-1.088.432-2.192-.176-3.104-.384-.592-1.328-.08-1.504.512-.416 2.256 0 4.688 1.344 6.528zm8.688-5.792c1.232 1.584 3.056 2.192 4.288 3.76.176.352.176.784-.176 1.056-.608.256-1.216.688-1.92.352-.352-.176-.704-.096-1.056-.176-.336-.096-.336-.704-.784-.624-.784.352-1.328 1.52-.432 1.92 2 .912 5.328.528 5.936-1.744.704-2.608-2.88-3.312-4.192-5.328-.08-.176.096-.336.272-.432 1.136-.608 2.432-.432 3.664-.88.352-.08.88-.432.688-.864-.144-.352-.608-.64-1.04-.528-2.016.512-4.368.528-5.76 2.272-.352.432.144.736.512 1.216zm9.792 5.712c.4.448 1.2.336 1.312-.064.288-1.056-.128-2.112.272-3.152.448.848.864 1.824 1.504 2.56.272.304.912.256 1.184-.064.592-.592.656-1.52.656-2.304 0-1.776.048-3.6-.592-5.248-.16-.4-1.12-.336-1.184.128-.192 1.248.464 2.496.464 3.744 0 .656.128 1.312-.128 1.968-.992-1.312-1.056-3.088-2.048-4.4-.192-.192-.976-.256-1.04.064-.464 2.176-.272 4.272-.528 6.432 0 .064.032.224.128.336zm5.28-3.488c.032 1.536.384 3.344 1.984 4.064.768.336 1.552.144 2.272.032.656-.096.96-1.056.384-1.472-.896.464-1.92.896-2.48-.08-.096-.16.192-.32.256-.336.608-.576 2.4-1.232 2.656-2 .016-1.344-1.12-2.544-2.368-2.72-1.568-.224-2.736.928-2.704 2.512zm1.744.816c-.384-.032-.592-1.52.112-1.888.64-.336 1.968.08 1.616.88-.24.768-.976.976-1.728 1.008zm5.12-3.36c-.368-.464-1.312-.32-1.392.4-.192 2.176-.288 4.464 1.088 6.272.432.56 1.456.448 2.096.08.64-.352 1.12-1.664 1.36-1.632.256.048.64 1.168 1.264 1.456.736.352 1.456.176 2-.176 1.632-1.088 1.664-3.12 1.456-4.992-.096-.896-1.28-.96-1.456-.416-.368 1.184.256 2.576-.544 3.952-.096.176-.288.464-.448.368-.832-.528-.912-1.744-1.664-2.432-.432-.4-.736-.336-1.152.064-.592.592-.704 1.376-1.184 2.096-.064.096-.304.48-.544.176-.4-.512-.4-1.2-.56-1.824-.288-1.2.4-2.496-.32-3.392zm11.52.96c0 .288.064.656-.08.96-.08.08-.224.144-.224.224-.224.288.16.576.224.816.304 1.168-.144 2.352.224 3.536.064.368.592.224.96.304 1.248.064 2.288-.544 3.472-.96.432-.16.656-.592.512-1.12-.08-.064-.224-.224-.288-.144-1.12.304-2.144 1.104-3.328.88-.08-.88-.352-1.968.144-2.496.608-.656 2.064.144 2.656-.896-.512-1.248-1.92-.288-2.88-.816.304-.736-.368-1.92.448-2.288.656-.288 1.328.24 2 .16.512-.08.8-.592.512-.816-1.328-1.04-3.456-.88-4.352.432-.432.608 0 1.488 0 2.224zm5.84 2.624c0 .672-.16 1.424.064 2.032.192.48.88.416 1.12 0 .64-1.072.752-2.304 1.552-3.184.272 1.296.128 2.576.336 3.92.064.416.672.256 1.088.144.272-.08.272-.544.208-.816-.08-1.616 0-3.376-.88-4.8-1.152-.336-1.632.672-2.16 1.552 0 .08-.08-.128-.144-.192 0-.416.256-.816.144-1.216-.16-.544-1.072-.56-1.264-.08-.272.736-.064 1.76-.064 2.64zM85.936 5.2c-.8.672-.912 1.648-.544 2.56.24.432.48.8.912.976.592.24 1.216.064 1.824-.304.304-.192.112.304.112.416.256 1.408.496 2.752.256 4.144-.064.128-.128.368-.304.432-.864.112-1.28-.8-1.776-1.28-.304-.368-1.168 0-.976.608.48 1.408 2.336 2.048 3.6 1.344.816-.464.8-1.408.72-2.256-.176-2.32-.72-4.752.32-6.944.048-.24-.192-.416-.32-.48-1.264-.672-2.8-.08-3.824.784zm1.024.432c.368-.304 1.056-.672 1.28-.304.192.288.128.912-.048 1.216-.32.544-.496 1.392-1.104 1.344-.368 0-.544-.672-.608-1.104-.064-.48.128-.848.48-1.152zm4.032.48c-.08 1.664.064 3.264-.4 4.848-.096.32 0 .72.24.88.464.24 1.024.256 1.248-.24.736-1.584.224-3.344.32-5.104.064-1.104 0-2.304 0-3.424 0-.16.096-.48.08-.64-.064-.944-1.264-.784-1.568-.16-.56 1.12.128 2.56.08 3.84zm6.384 6.224c.88.592.976-1.536 1.04-2.512.112-1.488.88-2.848.24-4.208-.72-1.504-3.104-1.056-4.256-.272-.144.144 0 1.44.64 1.216.848-.288 1.44-.72 2.384-.512.352.064.256.784.112 1.008-.032.048-2.288-.496-3.584 1.248-.4.528-.576 1.664-.144 2.24.64 1.072 1.92 1.008 3.056 1.216.224 0 .24.4.512.576zm-.288-1.936c-.128.304-2.384-.048-2.368-.752.032-1.376 1.648-1.104 2.576-1.456.352.848-.064 1.392-.208 2.208zm2.528-1.872c0 .672-.16 1.424.064 2.032.192.48.88.416 1.12 0 .64-1.072.752-2.304 1.552-3.184.272 1.296.128 2.576.336 3.92.064.416.672.256 1.088.144.272-.08.272-.544.208-.816-.08-1.616 0-3.376-.88-4.8-1.152-.336-1.632.672-2.16 1.552 0 .08-.08-.128-.144-.192 0-.416.256-.816.144-1.216-.16-.544-1.072-.56-1.264-.08-.272.736-.064 1.76-.064 2.64zm5.28-.112c0 1.168.992 1.712 1.776 2.24.592.4 1.216.224 1.84.224.384.08.384 1.088 1.072 1.008.24 0 .624-.24.624-.384-.464-2.704-.544-5.472.384-8 .064-.304-.304-.544-.464-.624-.384-.16-.848.16-1.072.544-.24.544-.08 1.376-.464 1.696-1.232.992-3.696 1.296-3.696 3.296zm1.616-.224c-.16-.992 1.152-1.456 2-1.456 0 .912-.304 1.76-.16 2.688-.848.304-1.728-.464-1.84-1.232z"/></g></svg>