<svg xmlns="http://www.w3.org/2000/svg" width="16" height="16" viewBox="0 0 16 16"><path d="M8.735 1H4.548C2.671 1 .905 2.422.905 4.069c0 1.683 1.279 3.042 3.189 3.042.133 0 .262-.003.388-.012a1.707 1.707 0 0 0-.213.782c0 .468.252.847.57 1.157-.24 0-.473.007-.726.007-2.325 0-4.114 1.481-4.114 3.016 0 1.512 1.962 2.458 4.286 2.458 2.65 0 4.114-1.504 4.114-3.016 0-1.213-.358-1.939-1.464-2.721-.378-.268-1.102-.919-1.102-1.302 0-.449.128-.67.804-1.198.692-.541 1.182-1.302 1.182-2.186 0-1.053-.469-2.08-1.35-2.418h1.327l.937-.677zM7.273 11.242c.033.14.051.284.051.432 0 1.222-.787 2.177-3.046 2.177-1.607 0-2.767-1.017-2.767-2.239 0-1.198 1.439-2.194 3.046-2.177.375.004.724.064 1.042.167.872.607 1.498.949 1.675 1.641zM4.7 6.684c-1.079-.032-2.104-1.207-2.29-2.623s.537-2.501 1.615-2.469c1.078.032 2.104 1.169 2.29 2.585s-.537 2.538-1.616 2.506zM13 4V1h-1v3H9v1h3v3h1V5h3V4z"/></svg>