<svg xmlns="http://www.w3.org/2000/svg" width="16" height="16" viewBox="0 0 16 16"><path d="M13.344 0H2.656A2.664 2.664 0 0 0 0 2.656v10.688A2.664 2.664 0 0 0 2.656 16h10.688A2.664 2.664 0 0 0 16 13.344V2.656A2.664 2.664 0 0 0 13.344 0zM5.122 7h5.756A3.05 3.05 0 0 1 8 11.047 3.05 3.05 0 0 1 5.122 7zM14 7.001V13c0 .55-.45 1-1 1H3c-.55 0-1-.45-1-1V7h1.564A4.552 4.552 0 0 0 8 12.547 4.552 4.552 0 0 0 12.436 7L14 7.001zM14 3.5c0 .275-.225.5-.5.5h-1a.501.501 0 0 1-.5-.5v-1c0-.275.225-.5.5-.5h1c.275 0 .5.225.5.5v1z"/></svg>