<svg xmlns="http://www.w3.org/2000/svg" width="17" height="17" viewBox="0 0 17 17"><path fill="#272727" d="M14.62 2.171c.427.209.798.506 1.071.871.573.769.734 1.816.479 3.112-.258 1.312-.837 2.419-1.68 3.221a4.806 4.806 0 0 1-.495.45c-.902.711-2.042 1.086-3.296 1.086H6.714l-1.072 5.026H3.444l.167-.769h.766l1.072-5.026h3.126c2.992 0 5.494-1.844 6.163-4.979.759-3.55-1.786-5.164-3.975-5.164H3.304L-.001 15.168h2.524l-.399 1.831h4.377l1.072-5.026h3.126c2.992 0 5.494-1.844 6.163-4.979.56-2.618-.677-4.182-2.243-4.824zm-7.608.918h2.144c1.072 0 1.786.922 1.474 2.074-.268 1.153-1.384 2.075-2.501 2.075H6.074l.938-4.149z"/></svg>