<svg xmlns="http://www.w3.org/2000/svg" width="16" height="16" viewBox="0 0 16 16"><path d="M8 0a8 8 0 0 0-2.915 15.45c-.07-.633-.133-1.604.028-2.295.145-.624.938-3.977.938-3.977s-.239-.479-.239-1.188c0-1.112.645-1.943 1.448-1.943.683 0 1.012.512 1.012 1.127 0 .686-.437 1.713-.663 2.663-.188.796.399 1.446 1.185 1.446 1.422 0 2.515-1.499 2.515-3.664 0-1.915-1.376-3.255-3.342-3.255-2.276 0-3.612 1.707-3.612 3.472 0 .688.265 1.425.595 1.826a.238.238 0 0 1 .055.229c-.061.253-.196.796-.222.907-.035.146-.116.177-.268.107-.999-.465-1.624-1.926-1.624-3.099 0-2.524 1.834-4.841 5.286-4.841 2.775 0 4.932 1.978 4.932 4.62 0 2.757-1.738 4.976-4.151 4.976-.811 0-1.573-.421-1.834-.919l-.498 1.902c-.181.695-.668 1.566-.994 2.097A8 8 0 1 0 8.001-.002z"/></svg>