<svg xmlns="http://www.w3.org/2000/svg" width="16" height="16" viewBox="0 0 16 16"><path d="M16 3.038a6.555 6.555 0 0 1-1.885.517 3.291 3.291 0 0 0 1.443-1.816 6.594 6.594 0 0 1-2.085.797 3.283 3.283 0 0 0-5.594 2.993 9.32 9.32 0 0 1-6.766-3.43 3.263 3.263 0 0 0-.444 1.65c0 1.139.579 2.144 1.46 2.732A3.27 3.27 0 0 1 .642 6.07v.041A3.286 3.286 0 0 0 3.275 9.33a3.283 3.283 0 0 1-1.483.056 3.287 3.287 0 0 0 3.066 2.28 6.588 6.588 0 0 1-4.86 1.359A9.295 9.295 0 0 0 5.03 14.5c6.038 0 9.34-5.002 9.34-9.34a8.58 8.58 0 0 0-.01-.425 6.665 6.665 0 0 0 1.638-1.699z"/></svg>