<svg xmlns="http://www.w3.org/2000/svg" width="16" height="16" viewBox="0 0 16 16"><path d="M4.581 0L3.5 2.144 2.419 0H1.04l1.949 3.396L3 3.389V6h1V3.389l.011.007L5.96 0zM7.5 2c.271 0 .5.229.5.5v2c0 .271-.229.5-.5.5S7 4.771 7 4.5v-2c0-.271.229-.5.5-.5zm0-1C6.675 1 6 1.675 6 2.5v2C6 5.325 6.675 6 7.5 6S9 5.325 9 4.5v-2C9 1.675 8.325 1 7.5 1zM12 1v3.937c-.436.364-1 .583-1-.713V1h-1v3.427h.002c.015.827.19 2.315 1.998 1.105V6h1V1h-1zM13.5 11a.5.5 0 0 0-.5.5v.5h1v-.5a.5.5 0 0 0-.5-.5zM9 11.5v2.625c.339.339 1 .375 1-.125v-2.344c0-.5-.5-.656-1-.156z"/><path d="M15.918 9.087c-.044-.576-.251-1.046-.622-1.41s-.845-.562-1.423-.595C12.783 7.028 10.288 7 8.096 7s-4.864.027-5.954.082c-.578.033-1.052.231-1.423.595s-.578.834-.622 1.41c-.065 1.174-.098 1.599-.098 2.186s.033 1.467.098 2.641c.044.576.251 1.046.622 1.41s.845.562 1.423.595c1.09.054 3.763.081 5.954.081s4.686-.027 5.777-.081c.578-.033 1.052-.231 1.423-.595s.578-.834.622-1.41c.055-.978.082-1.858.082-2.641s-.027-1.208-.082-2.186zM3 15H2v-5H1V9h3v1H3v5zm4 0H6v-.468c-1.901 1.067-1.983.034-1.998-.792H4v-2.739h1v2.755c0 .604.564.546 1 .182v-2.937h1v4zm4-1.014c0 1.045-1.07 1.35-2 .537V15H8V9h1v1.625c1-1 2-.625 2 .375v2.986zM15 12v.5h-2v1a.5.5 0 0 0 1 0V13h1v.5c0 .827-.673 1.5-1.5 1.5s-1.5-.673-1.5-1.5v-2c0-.827.673-1.5 1.5-1.5s1.5.673 1.5 1.5v.5z"/></svg>