<?xml version="1.0" encoding="utf-8"?>
<!-- Generated by IcoMoon.io -->
<!DOCTYPE svg PUBLIC "-//W3C//DTD SVG 1.1//EN" "http://www.w3.org/Graphics/SVG/1.1/DTD/svg11.dtd">
<svg version="1.1" xmlns="http://www.w3.org/2000/svg" xmlns:xlink="http://www.w3.org/1999/xlink" width="17" height="17" viewBox="0 0 17 17">
<path fill="#272727" d="M8.669 7.285v2.915h4.821c-0.196 1.252-1.458 3.666-4.821 3.666-2.902 0-5.269-2.404-5.269-5.366s2.367-5.366 5.269-5.366c1.65 0 2.756 0.704 3.387 1.312l2.308-2.221c-1.481-1.388-3.4-2.225-5.694-2.225-4.698 0-8.5 3.802-8.5 8.5s3.802 8.5 8.5 8.5c4.904 0 8.161-3.45 8.161-8.304 0-0.558-0.060-0.983-0.133-1.408l-8.029-0.003z"></path>
</svg>
