<?xml version="1.0" encoding="UTF-8" standalone="no"?>
<svg height="21" width="155" viewBox="0 0 111 15" version="1.1" xmlns="http://www.w3.org/2000/svg" xmlns:xlink="http://www.w3.org/1999/xlink" xmlns:sketch="http://www.bohemiancoding.com/sketch/ns">
    <!-- Generator: Sketch 3.4.4 (17249) - http://www.bohemiancoding.com/sketch -->
    <title>Shape + PAWS New England</title>
    <desc>Created with Sketch.</desc>
    <defs></defs>
    <g id="Page-1" stroke="none" stroke-width="1" fill="none" fill-rule="evenodd" sketch:type="MSPage">
        <g id="Shape-+-PAWS-New-England" sketch:type="MSLayerGroup" transform="translate(-1.000000, 0.000000)" fill="#FFFFFF">
            <path d="M7.25796547,7.03713125 C5.78995284,7.03713125 4.38440883,7.71946092 3.47736443,10.4659158 C2.57032003,13.2123706 4.5718147,12.9934955 5.83493024,12.4259259 C7.057816,11.8765311 7.52333218,11.7926679 8.9963423,12.5201747 C10.3831457,13.2051007 11.5683004,12.4903163 11.0737988,10.989866 C10.5792972,9.4894158 8.91338397,7.03687161 7.25796547,7.03687161 L7.25796547,7.03713125 Z M4.48136013,0.849169595 C3.64453046,1.0568803 3.20225261,2.2384946 3.49335639,3.48813415 C3.78446018,4.7377737 4.69875094,5.58237737 5.5355806,5.37466666 C5.53932872,5.37362811 5.54332671,5.37258955 5.54707483,5.37181064 C6.3839045,5.16409993 6.82618235,3.98248564 6.53507857,2.73284608 C6.40989145,2.19487535 6.16901244,1.73194011 5.8686633,1.39596804 C5.47136286,0.951207481 4.96961488,0.728178107 4.49285436,0.846313573 C4.48910624,0.847352126 4.48510825,0.848131042 4.48136013,0.849169595 L4.48136013,0.849169595 Z M9.32867537,0.805809985 C8.48659834,0.622764923 7.60054339,1.4951499 7.34991928,2.75439607 C7.2057417,3.47800825 7.30294288,4.17202166 7.57155795,4.66611351 C7.77020817,5.03168435 8.0628112,5.28794744 8.42088135,5.36557932 C8.42387984,5.36635823 8.42687833,5.36687751 8.42987683,5.36765643 C9.27195386,5.55070149 10.1580088,4.67831651 10.4086329,3.41907034 C10.659257,2.15982417 10.1799978,0.990672515 9.33767085,0.807627453 C9.33467236,0.806848538 9.33167386,0.806329261 9.32867537,0.805809985 L9.32867537,0.805809985 Z M1.24048799,7.30144312 C1.70325555,8.41321469 2.67826581,9.04543416 3.41839405,8.71309703 C3.84193131,8.52304173 4.09680329,8.05828902 4.1505263,7.48734421 C4.1907561,7.0604987 4.11854237,6.57393637 3.92064177,6.09827884 C3.9203919,6.09775957 3.92014202,6.09698065 3.91989215,6.09646137 C3.45712459,4.98468981 2.48211433,4.35247034 1.74198609,4.68480747 C1.00185785,5.0171446 0.77697081,6.18759445 1.23973837,7.29962565 C1.23998824,7.30014493 1.24023812,7.30092385 1.24048799,7.30144312 L1.24048799,7.30144312 Z M10.5752992,8.51681041 C10.9965876,8.70894281 11.4950872,8.58717241 11.9323676,8.2408148 C12.2612024,7.98013786 12.5553047,7.59249775 12.7552043,7.11554204 C13.2209703,6.00506866 12.9998314,4.8317628 12.2617021,4.49501181 C12.2584538,4.49345398 12.2552054,4.49215579 12.2522069,4.49059796 C11.5138278,4.15384697 10.5380679,4.78113331 10.0723019,5.89160669 C9.6065358,7.00208006 9.82767473,8.17538593 10.565804,8.51213692 C10.5690523,8.51369475 10.5723007,8.51499294 10.5752992,8.51655077 L10.5752992,8.51681041 Z" id="Shape" sketch:type="MSShapeGroup"></path>
            <path d="M17.496,5.408 C17.32,7.44 17.224,9.472 17.496,11.6 C17.576,11.696 17.672,11.872 17.848,11.968 C18.552,12.144 19.176,11.696 19.352,11.168 C19.528,10.368 19.08,9.568 19.176,8.688 C21.384,7.888 24.936,6.912 24.584,3.888 C22.808,1.856 19.976,1.248 17.496,2.208 C17.224,2.32 16.952,3.008 17.32,3.36 C17.496,3.456 17.752,3.456 17.928,3.536 C17.576,4.08 17.544,4.784 17.496,5.408 L17.496,5.408 Z M19.256,5.04 C19.256,4.608 19.528,4.256 19.528,3.808 C19.528,3.536 19.08,3.28 19.176,3.28 C20.504,2.928 21.752,3.808 22.808,4.608 C22.456,6.016 20.6,7.248 19.352,6.816 C18.824,6.64 19.256,5.68 19.256,5.04 L19.256,5.04 Z M26.536,4.912 C26.104,6.208 25.752,7.584 25.464,8.88 C25.24,9.888 24.664,10.832 24.888,11.84 C26.536,12.624 26.024,10.16 26.76,9.6 C27.336,9.152 28.264,9.04 28.856,9.376 C29.64,9.84 29.24,11.024 29.784,11.76 C30.104,12.176 30.952,11.984 31.016,11.552 C31.16,10.544 30.152,9.664 30.648,8.592 C30.728,8.512 30.728,8.304 30.648,8.16 C30.504,7.936 30.152,7.936 30.152,7.728 C29.64,5.712 29.336,3.76 28.488,1.952 C28.328,1.6 27.56,1.808 27.416,2.032 C26.84,2.816 26.888,3.888 26.536,4.912 L26.536,4.912 Z M27.416,6.352 C27.48,5.856 27.56,5.344 27.912,4.912 C28.344,5.856 28.92,6.864 28.632,7.872 C28.488,8.368 27.496,8.288 27.112,8.08 C26.696,7.856 27.32,7.008 27.416,6.352 L27.416,6.352 Z M32.808,11.056 C34.904,11.552 35.32,8.88 36.232,7.616 C36.664,8.208 36.904,8.704 37.24,9.376 C37.656,10.208 38.408,11.04 39.336,10.288 C39.656,10.032 39.832,9.632 40.008,9.296 C40.424,8.208 40.68,7.12 40.68,6.032 C40.68,4.944 41.096,3.68 40.168,2.928 C39.848,2.672 39.16,3.024 39,3.344 C38.584,5.024 39.672,6.864 38.504,8.288 C38.408,8.368 38.168,7.952 38.168,7.792 C37.752,6.528 36.648,4.608 35.48,6.032 C34.728,6.944 34.648,8.288 33.816,9.216 C33.304,8.624 33.32,7.872 33.144,7.12 C32.888,6.032 33.576,4.928 32.968,4.016 C32.584,3.424 31.64,3.936 31.464,4.528 C31.048,6.784 31.464,9.216 32.808,11.056 L32.808,11.056 Z M41.496,5.264 C42.728,6.848 44.552,7.456 45.784,9.024 C45.96,9.376 45.96,9.808 45.608,10.08 C45,10.336 44.392,10.768 43.688,10.432 C43.336,10.256 42.984,10.336 42.632,10.256 C42.296,10.16 42.296,9.552 41.848,9.632 C41.064,9.984 40.52,11.152 41.416,11.552 C43.416,12.464 46.744,12.08 47.352,9.808 C48.056,7.2 44.472,6.496 43.16,4.48 C43.08,4.304 43.256,4.144 43.432,4.048 C44.568,3.44 45.864,3.616 47.096,3.168 C47.448,3.088 47.976,2.736 47.784,2.304 C47.64,1.952 47.176,1.664 46.744,1.776 C44.728,2.288 42.376,2.304 40.984,4.048 C40.632,4.48 41.128,4.784 41.496,5.264 L41.496,5.264 Z M51.288,10.976 C51.688,11.424 52.488,11.312 52.6,10.912 C52.888,9.856 52.472,8.8 52.872,7.76 C53.32,8.608 53.736,9.584 54.376,10.32 C54.648,10.624 55.288,10.576 55.56,10.256 C56.152,9.664 56.216,8.736 56.216,7.952 C56.216,6.176 56.264,4.352 55.624,2.704 C55.464,2.304 54.504,2.368 54.44,2.832 C54.248,4.08 54.904,5.328 54.904,6.576 C54.904,7.232 55.032,7.888 54.776,8.544 C53.784,7.232 53.72,5.456 52.728,4.144 C52.536,3.952 51.752,3.888 51.688,4.208 C51.224,6.384 51.416,8.48 51.16,10.64 C51.16,10.704 51.192,10.864 51.288,10.976 L51.288,10.976 Z M56.568,7.488 C56.6,9.024 56.952,10.832 58.552,11.552 C59.32,11.888 60.104,11.696 60.824,11.584 C61.48,11.488 61.784,10.528 61.208,10.112 C60.312,10.576 59.288,11.008 58.728,10.032 C58.632,9.872 58.92,9.712 58.984,9.696 C59.592,9.12 61.384,8.464 61.64,7.696 C61.656,6.352 60.52,5.152 59.272,4.976 C57.704,4.752 56.536,5.904 56.568,7.488 L56.568,7.488 Z M58.312,8.304 C57.928,8.272 57.72,6.784 58.424,6.416 C59.064,6.08 60.392,6.496 60.04,7.296 C59.8,8.064 59.064,8.272 58.312,8.304 L58.312,8.304 Z M63.432,4.944 C63.064,4.48 62.12,4.624 62.04,5.344 C61.848,7.52 61.752,9.808 63.128,11.616 C63.56,12.176 64.584,12.064 65.224,11.696 C65.864,11.344 66.344,10.032 66.584,10.064 C66.84,10.112 67.224,11.232 67.848,11.52 C68.584,11.872 69.304,11.696 69.848,11.344 C71.48,10.256 71.512,8.224 71.304,6.352 C71.208,5.456 70.024,5.392 69.848,5.936 C69.48,7.12 70.104,8.512 69.304,9.888 C69.208,10.064 69.016,10.352 68.856,10.256 C68.024,9.728 67.944,8.512 67.192,7.824 C66.76,7.424 66.456,7.488 66.04,7.888 C65.448,8.48 65.336,9.264 64.856,9.984 C64.792,10.08 64.552,10.464 64.312,10.16 C63.912,9.648 63.912,8.96 63.752,8.336 C63.464,7.136 64.152,5.84 63.432,4.944 L63.432,4.944 Z M74.952,5.904 C74.952,6.192 75.016,6.56 74.872,6.864 C74.792,6.944 74.648,7.008 74.648,7.088 C74.424,7.376 74.808,7.664 74.872,7.904 C75.176,9.072 74.728,10.256 75.096,11.44 C75.16,11.808 75.688,11.664 76.056,11.744 C77.304,11.808 78.344,11.2 79.528,10.784 C79.96,10.624 80.184,10.192 80.04,9.664 C79.96,9.6 79.816,9.44 79.752,9.52 C78.632,9.824 77.608,10.624 76.424,10.4 C76.344,9.52 76.072,8.432 76.568,7.904 C77.176,7.248 78.632,8.048 79.224,7.008 C78.712,5.76 77.304,6.72 76.344,6.192 C76.648,5.456 75.976,4.272 76.792,3.904 C77.448,3.616 78.12,4.144 78.792,4.064 C79.304,3.984 79.592,3.472 79.304,3.248 C77.976,2.208 75.848,2.368 74.952,3.68 C74.52,4.288 74.952,5.168 74.952,5.904 L74.952,5.904 Z M80.792,8.528 C80.792,9.2 80.632,9.952 80.856,10.56 C81.048,11.04 81.736,10.976 81.976,10.56 C82.616,9.488 82.728,8.256 83.528,7.376 C83.8,8.672 83.656,9.952 83.864,11.296 C83.928,11.712 84.536,11.552 84.952,11.44 C85.224,11.36 85.224,10.896 85.16,10.624 C85.08,9.008 85.16,7.248 84.28,5.824 C83.128,5.488 82.648,6.496 82.12,7.376 C82.12,7.456 82.04,7.248 81.976,7.184 C81.976,6.768 82.232,6.368 82.12,5.968 C81.96,5.424 81.048,5.408 80.856,5.888 C80.584,6.624 80.792,7.648 80.792,8.528 L80.792,8.528 Z M86.936,5.2 C86.136,5.872 86.024,6.848 86.392,7.76 C86.632,8.192 86.872,8.56 87.304,8.736 C87.896,8.976 88.52,8.8 89.128,8.432 C89.432,8.24 89.24,8.736 89.24,8.848 C89.496,10.256 89.736,11.6 89.496,12.992 C89.432,13.12 89.368,13.36 89.192,13.424 C88.328,13.536 87.912,12.624 87.416,12.144 C87.112,11.776 86.248,12.144 86.44,12.752 C86.92,14.16 88.776,14.8 90.04,14.096 C90.856,13.632 90.84,12.688 90.76,11.84 C90.584,9.52 90.04,7.088 91.08,4.896 C91.128,4.656 90.888,4.48 90.76,4.416 C89.496,3.744 87.96,4.336 86.936,5.2 L86.936,5.2 Z M87.96,5.632 C88.328,5.328 89.016,4.96 89.24,5.328 C89.432,5.616 89.368,6.24 89.192,6.544 C88.872,7.088 88.696,7.936 88.088,7.888 C87.72,7.888 87.544,7.216 87.48,6.784 C87.416,6.304 87.608,5.936 87.96,5.632 L87.96,5.632 Z M91.992,6.112 C91.912,7.776 92.056,9.376 91.592,10.96 C91.496,11.28 91.592,11.68 91.832,11.84 C92.296,12.08 92.856,12.096 93.08,11.6 C93.816,10.016 93.304,8.256 93.4,6.496 C93.464,5.392 93.4,4.192 93.4,3.072 C93.4,2.912 93.496,2.592 93.48,2.432 C93.416,1.488 92.216,1.648 91.912,2.272 C91.352,3.392 92.04,4.832 91.992,6.112 L91.992,6.112 Z M98.376,12.336 C99.256,12.928 99.352,10.8 99.416,9.824 C99.528,8.336 100.296,6.976 99.656,5.616 C98.936,4.112 96.552,4.56 95.4,5.344 C95.256,5.488 95.4,6.784 96.04,6.56 C96.888,6.272 97.48,5.84 98.424,6.048 C98.776,6.112 98.68,6.832 98.536,7.056 C98.504,7.104 96.248,6.56 94.952,8.304 C94.552,8.832 94.376,9.968 94.808,10.544 C95.448,11.616 96.728,11.552 97.864,11.76 C98.088,11.76 98.104,12.16 98.376,12.336 L98.376,12.336 Z M98.088,10.4 C97.96,10.704 95.704,10.352 95.72,9.648 C95.752,8.272 97.368,8.544 98.296,8.192 C98.648,9.04 98.232,9.584 98.088,10.4 L98.088,10.4 Z M100.616,8.528 C100.616,9.2 100.456,9.952 100.68,10.56 C100.872,11.04 101.56,10.976 101.8,10.56 C102.44,9.488 102.552,8.256 103.352,7.376 C103.624,8.672 103.48,9.952 103.688,11.296 C103.752,11.712 104.36,11.552 104.776,11.44 C105.048,11.36 105.048,10.896 104.984,10.624 C104.904,9.008 104.984,7.248 104.104,5.824 C102.952,5.488 102.472,6.496 101.944,7.376 C101.944,7.456 101.864,7.248 101.8,7.184 C101.8,6.768 102.056,6.368 101.944,5.968 C101.784,5.424 100.872,5.408 100.68,5.888 C100.408,6.624 100.616,7.648 100.616,8.528 L100.616,8.528 Z M105.896,8.416 C105.896,9.584 106.888,10.128 107.672,10.656 C108.264,11.056 108.888,10.88 109.512,10.88 C109.896,10.96 109.896,11.968 110.584,11.888 C110.824,11.888 111.208,11.648 111.208,11.504 C110.744,8.8 110.664,6.032 111.592,3.504 C111.656,3.2 111.288,2.96 111.128,2.88 C110.744,2.72 110.28,3.04 110.056,3.424 C109.816,3.968 109.976,4.8 109.592,5.12 C108.36,6.112 105.896,6.416 105.896,8.416 L105.896,8.416 Z M107.512,8.192 C107.352,7.2 108.664,6.736 109.512,6.736 C109.512,7.648 109.208,8.496 109.352,9.424 C108.504,9.728 107.624,8.96 107.512,8.192 L107.512,8.192 Z" id="PAWS-New-England" sketch:type="MSShapeGroup"></path>
        </g>
    </g>
</svg>