<?xml version="1.0" encoding="utf-8"?>
<!-- Generated by IcoMoon.io -->
<!DOCTYPE svg PUBLIC "-//W3C//DTD SVG 1.1//EN" "http://www.w3.org/Graphics/SVG/1.1/DTD/svg11.dtd">
<svg version="1.1" xmlns="http://www.w3.org/2000/svg" xmlns:xlink="http://www.w3.org/1999/xlink" width="17" height="17" viewBox="0 0 17 17">
<path fill="#272727" d="M14.62 2.171c0.427 0.209 0.798 0.506 1.071 0.871 0.573 0.769 0.734 1.816 0.479 3.112-0.258 1.312-0.837 2.419-1.68 3.221-0.154 0.161-0.319 0.311-0.495 0.45-0.902 0.711-2.042 1.086-3.296 1.086h-3.985l-1.072 5.026h-2.198l0.167-0.769h0.766l1.072-5.026h3.126c2.992 0 5.494-1.844 6.163-4.979 0.759-3.55-1.786-5.164-3.975-5.164h-7.459l-3.305 15.169h2.524l-0.399 1.831h4.377l1.072-5.026h3.126c2.992 0 5.494-1.844 6.163-4.979 0.56-2.618-0.677-4.182-2.243-4.824zM7.012 3.089h2.144c1.072 0 1.786 0.922 1.474 2.074-0.268 1.153-1.384 2.075-2.501 2.075h-2.055l0.938-4.149z"></path>
</svg>
